<svg width="17" height="22" viewBox="0 0 17 22" fill="none" xmlns="http://www.w3.org/2000/svg">
<path d="M1.5 9.5C1.5 11.3565 2.2375 13.137 3.55025 14.4497C4.86301 15.7625 6.64348 16.5 8.5 16.5M8.5 16.5C10.3565 16.5 12.137 15.7625 13.4497 14.4497C14.7625 13.137 15.5 11.3565 15.5 9.5M8.5 16.5V20.5M4.5 20.5H12.5M5.5 4.5C5.5 3.70435 5.81607 2.94129 6.37868 2.37868C6.94129 1.81607 7.70435 1.5 8.5 1.5C9.29565 1.5 10.0587 1.81607 10.6213 2.37868C11.1839 2.94129 11.5 3.70435 11.5 4.5V9.5C11.5 10.2956 11.1839 11.0587 10.6213 11.6213C10.0587 12.1839 9.29565 12.5 8.5 12.5C7.70435 12.5 6.94129 12.1839 6.37868 11.6213C5.81607 11.0587 5.5 10.2956 5.5 9.5V4.5Z" stroke="#878787" stroke-width="1.5" stroke-linecap="round" stroke-linejoin="round"/>
</svg>
