<svg width="12" height="12" viewBox="0 0 12 12" fill="none" xmlns="http://www.w3.org/2000/svg">
<path d="M2.66667 6V2.11111C2.66667 1.81643 2.78373 1.53381 2.9921 1.32544C3.20048 1.11706 3.48309 1 3.77778 1H5.44444V2.25M1.55556 11L2.11111 10.1667M10.4444 11L9.88889 10.1667M1.55556 6H10.4444C10.5918 6 10.7331 6.05853 10.8373 6.16272C10.9415 6.26691 11 6.40821 11 6.55556V8.22222C11 8.81159 10.7659 9.37682 10.3491 9.79357C9.93238 10.2103 9.36715 10.4444 8.77778 10.4444H3.22222C2.63285 10.4444 2.06762 10.2103 1.65087 9.79357C1.23413 9.37682 1 8.81159 1 8.22222V6.55556C1 6.40821 1.05853 6.26691 1.16272 6.16272C1.26691 6.05853 1.40821 6 1.55556 6Z" stroke="#878787" stroke-linecap="round" stroke-linejoin="round"/>
</svg>
