<svg width="19" height="10" viewBox="0 0 19 10" fill="none" xmlns="http://www.w3.org/2000/svg">
<path d="M1 9H18M1 4C1 4.53043 1.19901 5.03914 1.55324 5.41421C1.90748 5.78929 2.38792 6 2.88889 6C3.38985 6 3.8703 5.78929 4.22454 5.41421C4.57877 5.03914 4.77778 4.53043 4.77778 4C4.77778 3.46957 4.57877 2.96086 4.22454 2.58579C3.8703 2.21071 3.38985 2 2.88889 2C2.38792 2 1.90748 2.21071 1.55324 2.58579C1.19901 2.96086 1 3.46957 1 4ZM7.61111 6H18V4C18 3.20435 17.7015 2.44129 17.1701 1.87868C16.6388 1.31607 15.9181 1 15.1667 1H7.61111V6Z" stroke="#878787" stroke-linecap="round" stroke-linejoin="round"/>
</svg>
