<svg width="19" height="20" viewBox="0 0 19 20" fill="none" xmlns="http://www.w3.org/2000/svg">
<path d="M5.5 7.35294L3.5 7.35294C2.96957 7.35294 2.46086 7.57605 2.08579 7.97319C1.71071 8.37032 1.5 8.90895 1.5 9.47059L1.5 16.8824C1.5 17.444 1.71071 17.9826 2.08579 18.3798C2.46086 18.7769 2.96957 19 3.5 19L15.5 19C16.0304 19 16.5391 18.7769 16.9142 18.3798C17.2893 17.9826 17.5 17.444 17.5 16.8824L17.5 9.47059C17.5 8.90895 17.2893 8.37032 16.9142 7.97319C16.5391 7.57605 16.0304 7.35294 15.5 7.35294L13.5 7.35294M9.5 0.999999L9.5 14.7647M9.5 14.7647L6.5 11.5882M9.5 14.7647L12.5 11.5882" stroke="black" stroke-width="1.5" stroke-linecap="round" stroke-linejoin="round"/>
</svg>
