<svg width="20" height="18" viewBox="0 0 20 18" fill="none" xmlns="http://www.w3.org/2000/svg">
<path d="M18.0049 9.64945L9.82727 18L1.64969 9.64945C1.1103 9.10828 0.685433 8.45782 0.40184 7.73903C0.118247 7.02024 -0.0179274 6.2487 0.00189051 5.47298C0.0217084 4.69726 0.19709 3.93418 0.516991 3.23178C0.836892 2.52938 1.29438 1.90289 1.86065 1.39174C2.42692 0.880599 3.08971 0.49588 3.80727 0.261813C4.52483 0.0277454 5.28163 -0.0505988 6.03 0.0317122C6.77837 0.114023 7.50211 0.355207 8.15563 0.740075C8.80916 1.12494 9.37832 1.64516 9.82727 2.26797C10.2782 1.64968 10.848 1.13401 11.5011 0.753226C12.1541 0.372442 12.8764 0.134743 13.6227 0.055004C14.369 -0.0247348 15.1232 0.0552041 15.8381 0.289817C16.553 0.524431 17.2133 0.908668 17.7776 1.41848C18.3419 1.92829 18.798 2.55271 19.1175 3.25264C19.4369 3.95258 19.6128 4.71297 19.6342 5.48622C19.6555 6.25947 19.5218 7.02894 19.2414 7.74647C18.9611 8.46399 18.5401 9.11414 18.0049 9.6562" fill="#C1272D"/>
</svg>
