<svg width="15" height="15" viewBox="0 0 15 15" fill="none" xmlns="http://www.w3.org/2000/svg">
<path d="M12.9578 7.93297L7.5061 13.5L2.05438 7.93297C1.69479 7.57219 1.41154 7.13855 1.22248 6.65935C1.03342 6.18016 0.942638 5.6658 0.95585 5.14865C0.969062 4.63151 1.08598 4.12279 1.29925 3.65452C1.51252 3.18626 1.81751 2.76859 2.19503 2.42783C2.57254 2.08707 3.0144 1.83059 3.49277 1.67454C3.97115 1.5185 4.47568 1.46627 4.97459 1.52114C5.4735 1.57602 5.95599 1.7368 6.39168 1.99338C6.82736 2.24996 7.2068 2.59677 7.5061 3.01198C7.8067 2.59979 8.18658 2.25601 8.62196 2.00215C9.05734 1.74829 9.53886 1.58983 10.0364 1.53667C10.5339 1.48351 11.0367 1.5368 11.5133 1.69321C11.9899 1.84962 12.4301 2.10578 12.8063 2.44565C13.1825 2.78553 13.4866 3.20181 13.6996 3.66843C13.9125 4.13505 14.0298 4.64198 14.044 5.15748C14.0583 5.67298 13.9691 6.18596 13.7822 6.66431C13.5953 7.14266 13.3147 7.57609 12.9578 7.93747" stroke="#C1272D" stroke-width="1.5" stroke-linecap="round" stroke-linejoin="round"/>
</svg>
