<svg width="20" height="20" viewBox="0 0 20 20" fill="none" xmlns="http://www.w3.org/2000/svg">
<path d="M10 15V15.01M10 11.4999C9.98159 11.1753 10.0692 10.8535 10.2495 10.5829C10.4299 10.3124 10.6933 10.1078 11 9.99992C11.3759 9.85618 11.7132 9.62716 11.9856 9.33088C12.2579 9.03459 12.4577 8.67914 12.5693 8.29251C12.6809 7.90588 12.7013 7.49861 12.6287 7.10279C12.5562 6.70696 12.3928 6.33337 12.1513 6.01144C11.9099 5.6895 11.597 5.42801 11.2373 5.24754C10.8776 5.06707 10.4809 4.97256 10.0785 4.97145C9.67611 4.97033 9.27892 5.06264 8.91824 5.24111C8.55756 5.41958 8.24323 5.67933 8 5.99992M1 10C1 11.1819 1.23279 12.3522 1.68508 13.4442C2.13738 14.5361 2.80031 15.5282 3.63604 16.364C4.47177 17.1997 5.46392 17.8626 6.55585 18.3149C7.64778 18.7672 8.8181 19 10 19C11.1819 19 12.3522 18.7672 13.4442 18.3149C14.5361 17.8626 15.5282 17.1997 16.364 16.364C17.1997 15.5282 17.8626 14.5361 18.3149 13.4442C18.7672 12.3522 19 11.1819 19 10C19 8.8181 18.7672 7.64778 18.3149 6.55585C17.8626 5.46392 17.1997 4.47177 16.364 3.63604C15.5282 2.80031 14.5361 2.13738 13.4442 1.68508C12.3522 1.23279 11.1819 1 10 1C8.8181 1 7.64778 1.23279 6.55585 1.68508C5.46392 2.13738 4.47177 2.80031 3.63604 3.63604C2.80031 4.47177 2.13738 5.46392 1.68508 6.55585C1.23279 7.64778 1 8.8181 1 10Z" stroke="black" stroke-width="1.5" stroke-linecap="round" stroke-linejoin="round"/>
</svg>
