<svg width="20" height="20" viewBox="0 0 20 20" fill="none" xmlns="http://www.w3.org/2000/svg">
<path d="M10 5.99951V9.99951L12 11.9995M1.05005 8.99958C1.27414 6.79964 2.30031 4.75919 3.93278 3.26755C5.56525 1.7759 7.68974 0.937465 9.90093 0.912209C12.1121 0.886953 14.2552 1.67664 15.9213 3.13061C17.5874 4.58459 18.6599 6.60106 18.9342 8.79531C19.2085 10.9896 18.6654 13.208 17.4084 15.0273C16.1515 16.8467 14.2687 18.1396 12.1193 18.6594C9.96997 19.1792 7.70446 18.8896 5.75504 17.8456C3.80563 16.8017 2.30877 15.0767 1.55005 12.9996M1.05005 17.9996V12.9996H6.05005" stroke="black" stroke-width="1.5" stroke-linecap="round" stroke-linejoin="round"/>
</svg>
