<svg width="11" height="12" viewBox="0 0 11 12" fill="none" xmlns="http://www.w3.org/2000/svg">
<path d="M3.70493 5.32773C3.70493 5.75816 3.87592 6.17097 4.18028 6.47533C4.48464 6.7797 4.89745 6.95068 5.32788 6.95068C5.75832 6.95068 6.17112 6.7797 6.47549 6.47533C6.77985 6.17097 6.95084 5.75816 6.95084 5.32773C6.95084 4.89729 6.77985 4.48449 6.47549 4.18012C6.17112 3.87576 5.75832 3.70477 5.32788 3.70477C4.89745 3.70477 4.48464 3.87576 4.18028 4.18012C3.87592 4.48449 3.70493 4.89729 3.70493 5.32773Z" stroke="#878787" stroke-linecap="round" stroke-linejoin="round"/>
<path d="M8.38824 8.38808L6.09284 10.6835C5.88996 10.8862 5.61492 11 5.32816 11C5.04139 11 4.76635 10.8862 4.56347 10.6835L2.26753 8.38808C1.66229 7.78281 1.25012 7.01165 1.08314 6.17213C0.91617 5.33261 1.00189 4.46243 1.32946 3.67162C1.65704 2.88082 2.21175 2.20491 2.92347 1.72936C3.63518 1.25382 4.47192 1 5.32789 1C6.18385 1 7.02059 1.25382 7.73231 1.72936C8.44402 2.20491 8.99873 2.88082 9.32631 3.67162C9.65388 4.46243 9.7396 5.33261 9.57263 6.17213C9.40565 7.01165 8.99348 7.78281 8.38824 8.38808Z" stroke="#878787" stroke-linecap="round" stroke-linejoin="round"/>
</svg>
