<svg width="41" height="39" viewBox="0 0 41 39" fill="none" xmlns="http://www.w3.org/2000/svg">
<path d="M12.2648 12.2941H28.7354M12.2648 20.5294H24.6178M14.3236 30.8235H8.14717C6.50907 30.8235 4.93806 30.1728 3.77975 29.0145C2.62144 27.8562 1.9707 26.2852 1.9707 24.6471V8.17647C1.9707 6.53837 2.62144 4.96736 3.77975 3.80905C4.93806 2.65073 6.50907 2 8.14717 2H32.853C34.4911 2 36.0622 2.65073 37.2205 3.80905C38.3788 4.96736 39.0295 6.53837 39.0295 8.17647V24.6471C39.0295 26.2852 38.3788 27.8562 37.2205 29.0145C36.0622 30.1728 34.4911 30.8235 32.853 30.8235H26.6766L20.5001 37L14.3236 30.8235Z" stroke="black" stroke-width="3" stroke-linecap="round" stroke-linejoin="round"/>
</svg>
