<svg width="38" height="39" viewBox="0 0 38 39" fill="none" xmlns="http://www.w3.org/2000/svg">
<path d="M13.1667 19.5L17.0556 23.3889L24.8333 15.6111M1.5 19.5C1.5 21.7981 1.95265 24.0738 2.83211 26.197C3.71157 28.3202 5.00061 30.2493 6.62563 31.8744C8.25066 33.4994 10.1798 34.7884 12.303 35.6679C14.4262 36.5474 16.7019 37 19 37C21.2981 37 23.5738 36.5474 25.697 35.6679C27.8202 34.7884 29.7493 33.4994 31.3744 31.8744C32.9994 30.2493 34.2884 28.3202 35.1679 26.197C36.0474 24.0738 36.5 21.7981 36.5 19.5C36.5 17.2019 36.0474 14.9262 35.1679 12.803C34.2884 10.6798 32.9994 8.75066 31.3744 7.12563C29.7493 5.50061 27.8202 4.21157 25.697 3.33211C23.5738 2.45265 21.2981 2 19 2C16.7019 2 14.4262 2.45265 12.303 3.33211C10.1798 4.21157 8.25066 5.50061 6.62563 7.12563C5.00061 8.75066 3.71157 10.6798 2.83211 12.803C1.95265 14.9262 1.5 17.2019 1.5 19.5Z" stroke="#34A853" stroke-width="3" stroke-linecap="round" stroke-linejoin="round"/>
</svg>
