<svg width="18" height="18" viewBox="0 0 18 18" fill="none" xmlns="http://www.w3.org/2000/svg">
<path d="M14 4.99951V1.99951C14 1.7343 13.8946 1.47994 13.7071 1.29241C13.5196 1.10487 13.2652 0.999512 13 0.999512H3C2.46957 0.999512 1.96086 1.21023 1.58579 1.5853C1.21071 1.96037 1 2.46908 1 2.99951M1 2.99951C1 3.52994 1.21071 4.03865 1.58579 4.41373C1.96086 4.7888 2.46957 4.99951 3 4.99951H15C15.2652 4.99951 15.5196 5.10487 15.7071 5.29241C15.8946 5.47994 16 5.7343 16 5.99951V8.99951M1 2.99951V14.9995C1 15.5299 1.21071 16.0387 1.58579 16.4137C1.96086 16.7888 2.46957 16.9995 3 16.9995H15C15.2652 16.9995 15.5196 16.8942 15.7071 16.7066C15.8946 16.5191 16 16.2647 16 15.9995V12.9995M17 8.99951V12.9995H13C12.4696 12.9995 11.9609 12.7888 11.5858 12.4137C11.2107 12.0387 11 11.5299 11 10.9995C11 10.4691 11.2107 9.96037 11.5858 9.5853C11.9609 9.21023 12.4696 8.99951 13 8.99951H17Z" stroke="black" stroke-width="1.5" stroke-linecap="round" stroke-linejoin="round"/>
</svg>
