<svg width="18" height="18" viewBox="0 0 18 18" fill="none" xmlns="http://www.w3.org/2000/svg">
<path d="M14 4.99854V1.99854C14 1.73332 13.8946 1.47896 13.7071 1.29143C13.5196 1.10389 13.2652 0.998535 13 0.998535H3C2.46957 0.998535 1.96086 1.20925 1.58579 1.58432C1.21071 1.95939 1 2.4681 1 2.99854M1 2.99854C1 3.52897 1.21071 4.03768 1.58579 4.41275C1.96086 4.78782 2.46957 4.99854 3 4.99854H15C15.2652 4.99854 15.5196 5.10389 15.7071 5.29143C15.8946 5.47896 16 5.73332 16 5.99854V8.99854M1 2.99854V14.9985C1 15.529 1.21071 16.0377 1.58579 16.4127C1.96086 16.7878 2.46957 16.9985 3 16.9985H15C15.2652 16.9985 15.5196 16.8932 15.7071 16.7056C15.8946 16.5181 16 16.2638 16 15.9985V12.9985M17 8.99854V12.9985H13C12.4696 12.9985 11.9609 12.7878 11.5858 12.4127C11.2107 12.0377 11 11.529 11 10.9985C11 10.4681 11.2107 9.95939 11.5858 9.58432C11.9609 9.20925 12.4696 8.99854 13 8.99854H17Z" stroke="black" stroke-width="1.5" stroke-linecap="round" stroke-linejoin="round"/>
</svg>
