<svg width="19" height="20" viewBox="0 0 19 20" fill="none" xmlns="http://www.w3.org/2000/svg">
<path d="M5.5 8L3.5 8C2.96957 8 2.46086 8.21071 2.08579 8.58579C1.71071 8.96086 1.5 9.46957 1.5 10L1.5 17C1.5 17.5304 1.71071 18.0391 2.08579 18.4142C2.46086 18.7893 2.96957 19 3.5 19L15.5 19C16.0304 19 16.5391 18.7893 16.9142 18.4142C17.2893 18.0391 17.5 17.5304 17.5 17L17.5 10C17.5 9.46957 17.2893 8.96086 16.9142 8.58579C16.5391 8.21071 16.0304 8 15.5 8L13.5 8M9.5 13L9.5 1M9.5 1L6.5 4M9.5 1L12.5 4" stroke="black" stroke-width="1.5" stroke-linecap="round" stroke-linejoin="round"/>
</svg>
