<svg width="13" height="12" viewBox="0 0 13 12" fill="none" xmlns="http://www.w3.org/2000/svg">
<path d="M5.71392 5.21495C5.50558 5.42337 5.38857 5.70601 5.38862 6.0007C5.38867 6.2954 5.50579 6.578 5.7142 6.78634C5.92262 6.99468 6.20526 7.1117 6.49995 7.11165C6.79465 7.1116 7.07725 6.99448 7.28559 6.78606M9.10056 8.59613C8.32124 9.08371 7.41925 9.33941 6.5 9.33335C4.5 9.33335 2.83333 8.22224 1.5 6.00002C2.20667 4.82224 3.00667 3.95668 3.9 3.40335M5.48889 2.76668C5.82169 2.69931 6.16045 2.66581 6.5 2.66668C8.5 2.66668 10.1667 3.77779 11.5 6.00002C11.13 6.61668 10.7339 7.14835 10.3122 7.59446M1.5 1L11.5 11" stroke="black" stroke-width="1.5" stroke-linecap="round" stroke-linejoin="round"/>
</svg>
