<svg width="21" height="20" viewBox="0 0 21 20" fill="none" xmlns="http://www.w3.org/2000/svg">
<g clip-path="url(#clip0_898_907)">
<path d="M19.424 9.71046C19.424 8.93159 19.3621 8.36322 19.2282 7.7738H10.5225V11.2892H15.6325C15.5296 12.1629 14.9732 13.4786 13.7369 14.3626L13.7195 14.4803L16.4721 16.6588L16.6628 16.6783C18.4143 15.0258 19.424 12.5944 19.424 9.71046Z" fill="#4285F4"/>
<path d="M10.5224 18.9729C13.0259 18.9729 15.1276 18.1308 16.6628 16.6783L13.7368 14.3627C12.9538 14.9205 11.9029 15.31 10.5224 15.31C8.07036 15.31 5.98924 13.6575 5.24738 11.3735L5.13864 11.383L2.27644 13.6459L2.23901 13.7522C3.76379 16.8467 6.89581 18.9729 10.5224 18.9729Z" fill="#34A853"/>
<path d="M5.2474 11.3736C5.05165 10.7842 4.93836 10.1526 4.93836 9.50004C4.93836 8.84742 5.05165 8.21592 5.2371 7.62651L5.23191 7.50098L2.33385 5.20166L2.23903 5.24774C1.6106 6.53185 1.25 7.97386 1.25 9.50004C1.25 11.0262 1.6106 12.4682 2.23903 13.7523L5.2474 11.3736Z" fill="#FBBC05"/>
<path d="M10.5224 3.68991C12.2635 3.68991 13.438 4.45826 14.1077 5.10036L16.7246 2.49004C15.1174 0.963864 13.0259 0.0270996 10.5224 0.0270996C6.89581 0.0270996 3.76379 2.15321 2.23901 5.24766L5.23708 7.62643C5.98924 5.34242 8.07036 3.68991 10.5224 3.68991Z" fill="#EB4335"/>
</g>
<defs>
<clipPath id="clip0_898_907">
<rect x="1.25" width="18.1739" height="19" rx="9.08696" fill="white"/>
</clipPath>
</defs>
</svg>
